<svg width="934" height="934" viewBox="0 0 934 934" fill="none" xmlns="http://www.w3.org/2000/svg">
<g clip-path="url(#clip0_506_17535)">
<path d="M433.802 153.894C352.636 130.651 222.842 99.7303 80.7805 138.064C54.3917 145.182 36.4689 156.96 23.9081 179.312C17.6461 190.479 11.8799 202.559 15.0201 214.878C17.7379 225.339 32.5207 229.015 44.3836 230.929C55.8057 232.751 81.68 234.128 88.6582 225.71C92.2944 221.305 92.386 208.93 73.435 204.9C66.4383 203.413 47.3952 202.743 45.9445 199.493C45.9445 199.493 46.6056 197.244 57.0543 193.972C61.6638 192.526 95.5263 178.422 188.042 181.451C298.059 185.036 394.155 211.106 495.78 251.592C595.218 291.207 706.96 362.853 772.503 448.159C797.294 480.434 828.069 533.464 832.13 578.114C841.954 686.552 737.281 778.059 524.757 770.72C488.434 769.458 444.29 760.742 444.29 760.742L439.88 551.393C439.88 551.393 529.806 550.704 629.23 583.819C637.694 586.642 646.196 592.233 646.969 600.54C647.518 606.933 642.541 612.414 636.942 617.357C626.639 626.459 612.464 630.419 609.343 634.284C607.083 637.07 607.065 641.325 610.004 643.666C617.477 649.518 635.82 653.497 648.197 652.4C673.265 650.151 689.94 635.491 702.536 616.278C715.959 595.803 723.599 543.737 652.183 510.534C559.869 467.593 439.219 475.675 439.219 475.675C439.219 475.675 438.597 447.287 437.348 428.39C435.273 397.396 426.787 336.471 398.875 318.911C393.77 315.734 387.507 315.363 383.983 320.173C378.566 327.328 373.24 354.587 372.064 361.665C361.56 425.045 362.111 481.884 361.56 482.683C361.248 483.055 360.918 483.368 360.477 483.703C359.375 484.409 292.66 492.474 228.259 520.696C202.55 531.959 165.786 552.287 154.639 578.449C140.26 612.207 165.547 649.164 208.243 690.082C244.4 724.735 297.71 761.21 337.21 780.087C347.273 784.898 359.1 790.827 359.1 790.827C359.1 790.827 361.652 815.016 363.709 828.992C371.128 879.365 409.087 872.025 419.553 869.869C436.559 866.357 439.825 854.911 442.176 841.646C443.462 834.399 442.931 823.92 442.931 823.92C442.931 823.92 468.638 829.919 485.902 833.096C536.106 842.481 590.648 844.097 637.916 837.575C826.968 811.431 874.603 721.315 889.662 697.252C915.83 655.41 971.342 538.835 804.124 365.791C765.927 326.25 655.507 217.366 433.765 153.876L433.802 153.894ZM184.149 625.513C177.281 618.339 171.992 610.573 173.608 601.191C175.151 592.141 192.67 584.15 201.521 581.515C286.802 556.075 359.081 554.775 359.081 554.775C359.081 554.775 358.402 585.733 358.255 617.04C357.979 676.349 359.522 736.549 359.522 736.549C359.522 736.549 263.333 708.198 184.149 625.494V625.513Z" fill="#136878"/>
</g>
<defs>
<clipPath id="clip0_506_17535">
<rect width="933" height="933" fill="white" transform="translate(0.5 0.923828)"/>
</clipPath>
</defs>
</svg>
